<?xml version="1.0" encoding="UTF-8" standalone="no"?>
<svg
   viewBox="0 0 634.18144 267.56715"
   width="634.18146"
   height="267.56714"
   version="1.1"
   id="svg112"
   sodipodi:docname="board.svg"
   xml:space="preserve"
   inkscape:export-filename="../Development/Git/MP2040/configs/BeatBoard/board.svg"
   inkscape:export-xdpi="96"
   inkscape:export-ydpi="96"
   inkscape:version="1.4.4 (dcaf3e7d9e, 2026-05-05)"
   xmlns:inkscape="http://www.inkscape.org/namespaces/inkscape"
   xmlns:sodipodi="http://sodipodi.sourceforge.net/DTD/sodipodi-0.dtd"
   xmlns="http://www.w3.org/2000/svg"
   xmlns:svg="http://www.w3.org/2000/svg"><sodipodi:namedview
     id="namedview112"
     pagecolor="#ffffff"
     bordercolor="#000000"
     borderopacity="0.25"
     inkscape:showpageshadow="2"
     inkscape:pageopacity="0.0"
     inkscape:pagecheckerboard="0"
     inkscape:deskcolor="#d1d1d1"
     showgrid="false"
     inkscape:zoom="3.1074536"
     inkscape:cx="321.80689"
     inkscape:cy="148.03117"
     inkscape:window-width="1261"
     inkscape:window-height="1371"
     inkscape:window-x="0"
     inkscape:window-y="0"
     inkscape:window-maximized="0"
     inkscape:current-layer="layer5" /><desc
     id="desc1">beatblock.dxf - scale = 1.000000, origin = (0.000000, 0.000000), method = manual</desc><defs
     id="defs4"><inkscape:path-effect
       effect="fillet_chamfer"
       id="path-effect112"
       is_visible="true"
       lpeversion="1"
       nodesatellites_param="F,0,0,1,0,22.677165,0,1 @ F,0,0,1,0,132.7837,0,1 @ F,0,0,1,0,132.78344,0,1 @ F,0,0,1,0,22.677165,0,1"
       radius="22.677165"
       unit="px"
       method="auto"
       mode="F"
       chamfer_steps="1"
       flexible="false"
       use_knot_distance="true"
       apply_no_radius="true"
       apply_with_radius="true"
       only_selected="false"
       hide_knots="false" /><marker
       id="DistanceX"
       orient="auto"
       refX="0"
       refY="0"
       style="overflow:visible"><path
         d="M 3,-3 -3,3 M 0,-5 V 5"
         style="stroke:#000000;stroke-width:0.5"
         id="path1" /></marker><pattern
       id="Hatch"
       patternUnits="userSpaceOnUse"
       width="8"
       height="8"
       x="0"
       y="0"><path
         d="M8 4 l-4,4"
         stroke="#000000"
         stroke-width="0.25"
         linecap="square"
         id="path2" /><path
         d="M6 2 l-4,4"
         stroke="#000000"
         stroke-width="0.25"
         linecap="square"
         id="path3" /><path
         d="M4 0 l-4,4"
         stroke="#000000"
         stroke-width="0.25"
         linecap="square"
         id="path4" /></pattern><symbol
       id="*MODEL_SPACE" /><symbol
       id="*PAPER_SPACE" /></defs><g
     inkscape:groupmode="layer"
     id="layer2"
     inkscape:label="Layer 1"
     transform="translate(1,1)" /><path
     style="fill:#1c1f26;fill-opacity:1;stroke:#000000;stroke-width:2;stroke-linecap:round;stroke-dasharray:none;stroke-opacity:1"
     id="rect112"
     width="632.18146"
     height="265.56714"
     x="0"
     y="0"
     rx="0"
     ry="0"
     inkscape:path-effect="#path-effect112"
     sodipodi:type="rect"
     d="M 22.677165,0 H 499.39776 A 132.7837,132.7837 45 0 1 632.18146,132.7837 132.78344,132.78344 135 0 1 499.39802,265.56714 H 22.677165 A 22.677165,22.677165 45 0 1 0,242.88997 V 22.677165 A 22.677165,22.677165 135 0 1 22.677165,0 Z"
     transform="translate(1,1)" /><g
     inkscape:groupmode="layer"
     inkscape:label="MODELSKETCH_VISIBLE"
     id="g104"
     transform="translate(500.398,-988.736)"
     style="display:none"><path
       style="fill:none;stroke:#000000;stroke-width:2;stroke-dasharray:none"
       d="m -238.11,1111.18 v -98.27"
       id="path42" /><path
       style="fill:none;stroke:#000000;stroke-width:2;stroke-dasharray:none"
       d="m -136.063,1009.13 h -98.268"
       id="path43" /><path
       style="fill:none;stroke:#000000;stroke-width:2;stroke-dasharray:none"
       d="m -136.063,1235.91 h -98.268"
       id="path44" /><path
       style="fill:none;stroke:#000000;stroke-width:2;stroke-dasharray:none"
       d="m -132.283,1232.13 v -98.27"
       id="path45" /><path
       d="m -179.52756,1062.0472 a 5.6692915,5.6692915 0 0 0 -11.33858,0 5.6692915,5.6692915 0 0 0 11.33858,0 z"
       style="fill:none;stroke:#000000;stroke-width:2;stroke-dasharray:none"
       id="path46" /><path
       style="fill:none;stroke:#000000;stroke-width:2;stroke-dasharray:none"
       d="m -238.11,1232.13 v -98.27"
       id="path47" /><path
       d="m -300.47244,1062.0472 a 5.6692915,5.6692915 0 0 0 -11.33858,0 5.6692915,5.6692915 0 0 0 11.33858,0 z"
       style="fill:none;stroke:#000000;stroke-width:2;stroke-dasharray:none"
       id="path48" /><path
       style="fill:none;stroke:#000000;stroke-width:2;stroke-dasharray:none"
       d="m -136.063,1130.08 h -98.268"
       id="path49" /><path
       d="m -498.89764,1232.126 a 22.677165,22.677165 0 0 0 22.67717,22.6772"
       style="fill:none;stroke:#000000;stroke-width:2;stroke-dasharray:none"
       id="path50" /><path
       d="m -476.22047,990.23622 a 22.677165,22.677165 0 0 0 -22.67717,22.67718"
       style="fill:none;stroke:#000000;stroke-width:2;stroke-dasharray:none"
       id="path51" /><path
       style="fill:none;stroke:#000000;stroke-width:2;stroke-dasharray:none"
       d="m -257.008,1114.96 h -98.268"
       id="path52" /><path
       d="m -421.41732,1182.9921 a 5.669295,5.669295 0 0 0 -11.33859,0 5.669295,5.669295 0 0 0 11.33859,0 z"
       style="fill:none;stroke:#000000;stroke-width:2;stroke-dasharray:none"
       id="path53" /><path
       d="m -253.22835,1012.9134 a 3.779528,3.779528 0 0 0 -3.77952,-3.7795"
       style="fill:none;stroke:#000000;stroke-width:2;stroke-dasharray:none"
       id="path54" /><path
       style="fill:none;stroke:#000000;stroke-width:2;stroke-dasharray:none"
       d="m -253.228,1111.18 v -98.27"
       id="path55" /><path
       d="m -355.27559,1009.1339 a 3.779528,3.779528 0 0 0 -3.77953,3.7795"
       style="fill:none;stroke:#000000;stroke-width:2;stroke-dasharray:none"
       id="path56" /><path
       style="fill:none;stroke:#000000;stroke-width:2;stroke-dasharray:none"
       d="m -359.055,1111.18 v -98.27"
       id="path57" /><path
       d="m -359.05512,1111.1811 a 3.779528,3.779528 0 0 0 3.77953,3.7795"
       style="fill:none;stroke:#000000;stroke-width:2;stroke-dasharray:none"
       id="path58" /><path
       style="fill:none;stroke:#000000;stroke-width:2;stroke-dasharray:none"
       d="m -257.008,1009.13 h -98.268"
       id="path59" /><path
       d="m -257.00787,1114.9606 a 3.779528,3.779528 0 0 0 3.77952,-3.7795"
       style="fill:none;stroke:#000000;stroke-width:2;stroke-dasharray:none"
       id="path60" /><path
       style="fill:none;stroke:#000000;stroke-width:2;stroke-dasharray:none"
       d="m -257.008,1235.91 h -98.268"
       id="path61" /><path
       d="m -136.06299,1114.9606 a 3.779528,3.779528 0 0 0 3.77953,-3.7795"
       style="fill:none;stroke:#000000;stroke-width:2;stroke-dasharray:none"
       id="path62" /><path
       style="fill:none;stroke:#000000;stroke-width:2;stroke-dasharray:none"
       d="m -253.228,1232.13 v -98.27"
       id="path63" /><path
       d="m -132.28346,1012.9134 a 3.779528,3.779528 0 0 0 -3.77953,-3.7795"
       style="fill:none;stroke:#000000;stroke-width:2;stroke-dasharray:none"
       id="path64" /><path
       style="fill:none;stroke:#000000;stroke-width:2;stroke-dasharray:none"
       d="m -359.055,1232.13 v -98.27"
       id="path65" /><path
       d="m -377.95276,1235.9055 a 3.779528,3.779528 0 0 0 3.77953,-3.7795"
       style="fill:none;stroke:#000000;stroke-width:2;stroke-dasharray:none"
       id="path66" /><path
       style="fill:none;stroke:#000000;stroke-width:2;stroke-dasharray:none"
       d="M 0,1254.8 H -476.22"
       id="path67" /><path
       d="m 75.590551,1122.5197 a 75.590551,75.590551 0 0 0 -151.181102,0 75.590551,75.590551 0 0 0 151.181102,0 z"
       style="fill:none;stroke:#000000;stroke-width:2;stroke-dasharray:none"
       id="path68" /><path
       d="m -179.52756,1182.9921 a 5.6692915,5.6692915 0 0 0 -11.33858,0 5.6692915,5.6692915 0 0 0 11.33858,0 z"
       style="fill:none;stroke:#000000;stroke-width:2;stroke-dasharray:none"
       id="path69" /><path
       d="m -480,1232.126 a 3.779528,3.779528 0 0 0 3.77953,3.7795"
       style="fill:none;stroke:#000000;stroke-width:2;stroke-dasharray:none"
       id="path70" /><path
       style="fill:none;stroke:#000000;stroke-width:2;stroke-dasharray:none"
       d="M 0,990.236 H -476.22"
       id="path71" /><path
       style="fill:none;stroke:#000000;stroke-width:2;stroke-dasharray:none"
       d="m -498.898,1012.91 v 219.22"
       id="path72" /><path
       d="m -355.27559,1130.0787 a 3.779528,3.779528 0 0 0 -3.77953,3.7796"
       style="fill:none;stroke:#000000;stroke-width:2;stroke-dasharray:none"
       id="path73" /><path
       d="M -476.22047,1130.0787 A 3.779528,3.779528 0 0 0 -480,1133.8583"
       style="fill:none;stroke:#000000;stroke-width:2;stroke-dasharray:none"
       id="path74" /><path
       d="m -374.17323,1133.8583 a 3.779528,3.779528 0 0 0 -3.77953,-3.7796"
       style="fill:none;stroke:#000000;stroke-width:2;stroke-dasharray:none"
       id="path75" /><path
       d="m -480,1111.1811 a 3.779528,3.779528 0 0 0 3.77953,3.7795"
       style="fill:none;stroke:#000000;stroke-width:2;stroke-dasharray:none"
       id="path76" /><path
       d="m -377.95276,1114.9606 a 3.779528,3.779528 0 0 0 3.77953,-3.7795"
       style="fill:none;stroke:#000000;stroke-width:2;stroke-dasharray:none"
       id="path77" /><path
       style="fill:none;stroke:#000000;stroke-width:2;stroke-dasharray:none"
       d="m -136.063,1114.96 h -98.268"
       id="path78" /><path
       style="fill:none;stroke:#000000;stroke-width:2;stroke-dasharray:none"
       d="m -132.283,1111.18 v -98.27"
       id="path79" /><path
       d="M 132.28346,1122.5197 A 132.28346,132.28346 0 0 0 0,990.23622"
       style="fill:none;stroke:#000000;stroke-width:2;stroke-dasharray:none"
       id="path80" /><path
       d="M 0,1254.8032 A 132.28346,132.28346 0 0 0 132.28346,1122.5197"
       style="fill:none;stroke:#000000;stroke-width:2;stroke-dasharray:none"
       id="path81" /><path
       d="M -476.22047,1009.1339 A 3.779528,3.779528 0 0 0 -480,1012.9134"
       style="fill:none;stroke:#000000;stroke-width:2;stroke-dasharray:none"
       id="path82" /><path
       d="m -374.17323,1012.9134 a 3.779528,3.779528 0 0 0 -3.77953,-3.7795"
       style="fill:none;stroke:#000000;stroke-width:2;stroke-dasharray:none"
       id="path83" /><path
       style="fill:none;stroke:#000000;stroke-width:2;stroke-dasharray:none"
       d="M -377.953,1235.91 H -476.22"
       id="path84" /><path
       d="m -421.41732,1062.0472 a 5.669295,5.669295 0 0 0 -11.33859,0 5.669295,5.669295 0 0 0 11.33859,0 z"
       style="fill:none;stroke:#000000;stroke-width:2;stroke-dasharray:none"
       id="path85" /><path
       d="m -253.22835,1133.8583 a 3.779528,3.779528 0 0 0 -3.77952,-3.7796"
       style="fill:none;stroke:#000000;stroke-width:2;stroke-dasharray:none"
       id="path86" /><path
       style="fill:none;stroke:#000000;stroke-width:2;stroke-dasharray:none"
       d="M -377.953,1130.08 H -476.22"
       id="path87" /><path
       d="m -257.00787,1235.9055 a 3.779528,3.779528 0 0 0 3.77952,-3.7795"
       style="fill:none;stroke:#000000;stroke-width:2;stroke-dasharray:none"
       id="path88" /><path
       style="fill:none;stroke:#000000;stroke-width:2;stroke-dasharray:none"
       d="m -374.173,1232.13 v -98.27"
       id="path89" /><path
       d="m -359.05512,1232.126 a 3.779528,3.779528 0 0 0 3.77953,3.7795"
       style="fill:none;stroke:#000000;stroke-width:2;stroke-dasharray:none"
       id="path90" /><path
       d="m -300.47244,1182.9921 a 5.6692915,5.6692915 0 0 0 -11.33858,0 5.6692915,5.6692915 0 0 0 11.33858,0 z"
       style="fill:none;stroke:#000000;stroke-width:2;stroke-dasharray:none"
       id="path91" /><path
       style="fill:none;stroke:#000000;stroke-width:2;stroke-dasharray:none"
       d="m -480,1232.13 v -98.27"
       id="path92" /><path
       d="m -234.33071,1130.0787 a 3.779528,3.779528 0 0 0 -3.77953,3.7796"
       style="fill:none;stroke:#000000;stroke-width:2;stroke-dasharray:none"
       id="path93" /><path
       style="fill:none;stroke:#000000;stroke-width:2;stroke-dasharray:none"
       d="M -377.953,1009.13 H -476.22"
       id="path94" /><path
       d="m -132.28346,1133.8583 a 3.779528,3.779528 0 0 0 -3.77953,-3.7796"
       style="fill:none;stroke:#000000;stroke-width:2;stroke-dasharray:none"
       id="path95" /><path
       style="fill:none;stroke:#000000;stroke-width:2;stroke-dasharray:none"
       d="m -480,1111.18 v -98.27"
       id="path96" /><path
       d="m -136.06299,1235.9055 a 3.779528,3.779528 0 0 0 3.77953,-3.7795"
       style="fill:none;stroke:#000000;stroke-width:2;stroke-dasharray:none"
       id="path97" /><path
       d="m 113.38583,1122.5197 a 113.38583,113.38583 0 0 0 -226.77166,0 113.38583,113.38583 0 0 0 226.77166,0 z"
       style="fill:none;stroke:#000000;stroke-width:2;stroke-dasharray:none"
       id="path98" /><path
       style="fill:none;stroke:#000000;stroke-width:2;stroke-dasharray:none"
       d="m -374.173,1111.18 v -98.27"
       id="path99" /><path
       d="m -238.11024,1232.126 a 3.779528,3.779528 0 0 0 3.77953,3.7795"
       style="fill:none;stroke:#000000;stroke-width:2;stroke-dasharray:none"
       id="path100" /><path
       style="fill:none;stroke:#000000;stroke-width:2;stroke-dasharray:none"
       d="M -377.953,1114.96 H -476.22"
       id="path101" /><path
       d="m -238.11024,1111.1811 a 3.779528,3.779528 0 0 0 3.77953,3.7795"
       style="fill:none;stroke:#000000;stroke-width:2;stroke-dasharray:none"
       id="path102" /><path
       style="fill:none;stroke:#000000;stroke-width:2;stroke-dasharray:none"
       d="m -257.008,1130.08 h -98.268"
       id="path103" /><path
       d="m -234.33071,1009.1339 a 3.779528,3.779528 0 0 0 -3.77953,3.7795"
       style="fill:none;stroke:#000000;stroke-width:2;stroke-dasharray:none"
       id="path104" /></g><g
     inkscape:label="beatball"
     id="layer1"
     transform="matrix(3.7795276,0,0,3.7795276,198.43948,-350.82665)"
     style="stroke-width:0.529167;stroke-dasharray:none"><path
       id="path1-3"
       style="fill:#ffffff;fill-opacity:1;stroke-width:0.529167;stroke-linecap:round;stroke-dasharray:none"
       d="m 79.893192,109.21982 a 19,19 0 0 0 -18.999874,18.99987 19,19 0 0 0 18.999874,18.99988 19,19 0 0 0 18.999874,-18.99988 19,19 0 0 0 -18.999874,-18.99987 z m -4.999695,7.74991 c 0.277,0 0.499711,0.22323 0.499711,0.50023 v 8.99997 c 0,0.277 -0.222711,0.49971 -0.499711,0.49971 -0.277,0 -0.500228,-0.22271 -0.500228,-0.49971 v -8.99997 c 0,-0.277 0.223228,-0.50023 0.500228,-0.50023 z m 9.999907,0 c 0.277,0 0.499711,0.22323 0.499711,0.50023 v 8.99997 c 0,0.277 -0.222711,0.49971 -0.499711,0.49971 -0.277,0 -0.500228,-0.22271 -0.500228,-0.49971 v -8.99997 c 0,-0.277 0.223228,-0.50023 0.500228,-0.50023 z" /><rect
       style="display:none;fill:#808080;fill-opacity:1;stroke-width:0.529167;stroke-linecap:round;stroke-dasharray:none"
       id="rect1"
       width="20"
       height="25"
       x="88.893318"
       y="122.21982" /><path
       style="fill:#808080;fill-opacity:1;stroke-width:0.529167;stroke-linecap:round;stroke-dasharray:none"
       d="m 78.893318,127.21982 v 20"
       id="path2-6" /><path
       style="display:none;fill:#808080;fill-opacity:1;stroke:#000000;stroke-width:0.529167;stroke-linecap:round;stroke-dasharray:none;stroke-opacity:1"
       d="m 74.893318,116.96982 v 10"
       id="path3-7" /><path
       style="display:none;fill:#808080;fill-opacity:1;stroke:#000000;stroke-width:0.529167;stroke-linecap:round;stroke-dasharray:none;stroke-opacity:1"
       d="m 84.893319,116.96982 v 10"
       id="path4-5" /></g><rect
     style="fill:#2b303b;fill-opacity:1;stroke:#000000;stroke-width:2;stroke-linecap:round;stroke-dasharray:none;stroke-opacity:1"
     id="rect113"
     width="105.82677"
     height="105.82677"
     x="20.398001"
     y="20.397816"
     rx="3.7795277"
     ry="3.7795277" /><rect
     style="fill:#2b303b;fill-opacity:1;stroke:#000000;stroke-width:2;stroke-linecap:round;stroke-dasharray:none;stroke-opacity:1"
     id="rect113-5"
     width="105.82677"
     height="105.82677"
     x="141.34288"
     y="20.397816"
     rx="3.7795277"
     ry="3.7795277" /><rect
     style="fill:#2b303b;fill-opacity:1;stroke:#000000;stroke-width:2;stroke-linecap:round;stroke-dasharray:none;stroke-opacity:1"
     id="rect113-5-2"
     width="105.82677"
     height="105.82677"
     x="262.28778"
     y="20.397816"
     rx="3.7795277"
     ry="3.7795277" /><rect
     style="fill:#2b303b;fill-opacity:1;stroke:#000000;stroke-width:2;stroke-linecap:round;stroke-dasharray:none;stroke-opacity:1"
     id="rect113-5-1"
     width="105.82677"
     height="105.82677"
     x="262.28778"
     y="141.34271"
     rx="3.7795277"
     ry="3.7795277" /><rect
     style="fill:#2b303b;fill-opacity:1;stroke:#000000;stroke-width:2;stroke-linecap:round;stroke-dasharray:none;stroke-opacity:1"
     id="rect113-5-7"
     width="105.82677"
     height="105.82677"
     x="141.34288"
     y="141.34271"
     rx="3.7795277"
     ry="3.7795277" /><rect
     style="fill:#2b303b;fill-opacity:1;stroke:#000000;stroke-width:2;stroke-linecap:round;stroke-dasharray:none;stroke-opacity:1"
     id="rect113-5-9"
     width="105.82677"
     height="105.82677"
     x="20.398001"
     y="141.34271"
     rx="3.7795277"
     ry="3.7795277" /><path
     id="path113"
     style="fill:#2b303b;fill-opacity:1;stroke:#000000;stroke-width:2;stroke-linecap:round;stroke-dasharray:none;stroke-opacity:1"
     d="M 500.39844,20.396484 A 113.38583,113.38583 0 0 0 387.01172,133.7832 113.38583,113.38583 0 0 0 500.39844,247.16992 113.38583,113.38583 0 0 0 613.7832,133.7832 113.38583,113.38583 0 0 0 500.39844,20.396484 Z m 0,37.796875 a 75.590553,75.590553 0 0 1 75.58984,75.589841 75.590553,75.590553 0 0 1 -75.58984,75.5918 75.590553,75.590553 0 0 1 -75.5918,-75.5918 75.590553,75.590553 0 0 1 75.5918,-75.589841 z" /><g
     inkscape:groupmode="layer"
     id="layer3"
     inkscape:label="extra"
     style="display:none"><path
       style="fill:#ff0202;fill-opacity:1;stroke:#000000;stroke-width:1.82574;stroke-linecap:round;stroke-dasharray:none;stroke-opacity:1"
       d="M 73.311382,50.634037 V 126.22458"
       id="path116" /><rect
       style="display:inline;fill:#ff0202;fill-opacity:1;stroke:none;stroke-width:2;stroke-linecap:round;stroke-dasharray:none;stroke-opacity:1"
       id="rect115"
       width="7.5590553"
       height="7.5590553"
       x="69.531853"
       y="20.397816" /><path
       style="display:inline;fill:#ff0202;fill-opacity:1;stroke:#000000;stroke-width:1.82574;stroke-linecap:round;stroke-dasharray:none;stroke-opacity:1"
       d="M 194.25627,50.634037 V 126.22458"
       id="path116-9" /><rect
       style="display:inline;fill:#ff0202;fill-opacity:1;stroke:none;stroke-width:2;stroke-linecap:round;stroke-dasharray:none;stroke-opacity:1"
       id="rect115-3"
       width="7.5590553"
       height="7.5590553"
       x="190.47673"
       y="20.397816" /><path
       style="display:inline;fill:#ff0202;fill-opacity:1;stroke:#000000;stroke-width:1.82574;stroke-linecap:round;stroke-dasharray:none;stroke-opacity:1"
       d="M 315.20118,50.634037 V 126.22458"
       id="path116-7" /><rect
       style="display:inline;fill:#ff0202;fill-opacity:1;stroke:none;stroke-width:2;stroke-linecap:round;stroke-dasharray:none;stroke-opacity:1"
       id="rect115-8"
       width="7.5590553"
       height="7.5590553"
       x="311.42163"
       y="20.397816" /><path
       style="display:inline;fill:#ff0202;fill-opacity:1;stroke:#000000;stroke-width:1.82574;stroke-linecap:round;stroke-dasharray:none;stroke-opacity:1"
       d="m 315.20117,171.57893 v 75.59054"
       id="path116-3" /><rect
       style="display:inline;fill:#ff0202;fill-opacity:1;stroke:none;stroke-width:2;stroke-linecap:round;stroke-dasharray:none;stroke-opacity:1"
       id="rect115-6"
       width="7.5590553"
       height="7.5590553"
       x="311.42163"
       y="141.34271" /><path
       style="display:inline;fill:#ff0202;fill-opacity:1;stroke:#000000;stroke-width:1.82574;stroke-linecap:round;stroke-dasharray:none;stroke-opacity:1"
       d="m 194.25627,171.57893 v 75.59054"
       id="path116-32" /><rect
       style="display:inline;fill:#ff0202;fill-opacity:1;stroke:none;stroke-width:2;stroke-linecap:round;stroke-dasharray:none;stroke-opacity:1"
       id="rect115-0"
       width="7.5590553"
       height="7.5590553"
       x="190.47675"
       y="141.34271" /><path
       style="display:inline;fill:#ff0202;fill-opacity:1;stroke:#000000;stroke-width:1.82574;stroke-linecap:round;stroke-dasharray:none;stroke-opacity:1"
       d="m 73.311385,171.57893 v 75.59054"
       id="path116-4" /><rect
       style="display:inline;fill:#ff0202;fill-opacity:1;stroke:none;stroke-width:2;stroke-linecap:round;stroke-dasharray:none;stroke-opacity:1"
       id="rect115-7"
       width="7.5590553"
       height="7.5590553"
       x="69.531853"
       y="141.34271" /></g><g
     inkscape:groupmode="layer"
     id="layer5"
     inkscape:label="leds"><rect
       style="fill:#ff0202;fill-opacity:1;stroke:#000000;stroke-width:2;stroke-linecap:round;stroke-dasharray:none;stroke-opacity:1"
       id="rect116"
       width="45.354332"
       height="22.677166"
       x="50.634216"
       y="27.956871"
       rx="11.338583"
       ry="11.338583" /><rect
       style="display:inline;fill:#ff0202;fill-opacity:1;stroke:#000000;stroke-width:2;stroke-linecap:round;stroke-dasharray:none;stroke-opacity:1"
       id="rect116-1"
       width="45.354332"
       height="22.677166"
       x="171.5791"
       y="27.956871"
       rx="11.338583"
       ry="11.338583" /><rect
       style="display:inline;fill:#ff0202;fill-opacity:1;stroke:#000000;stroke-width:2;stroke-linecap:round;stroke-dasharray:none;stroke-opacity:1"
       id="rect116-9"
       width="45.354332"
       height="22.677166"
       x="292.52399"
       y="27.956871"
       rx="11.338583"
       ry="11.338583" /><rect
       style="display:inline;fill:#ff0202;fill-opacity:1;stroke:#000000;stroke-width:2;stroke-linecap:round;stroke-dasharray:none;stroke-opacity:1"
       id="rect116-5"
       width="45.354332"
       height="22.677166"
       x="292.52399"
       y="148.90176"
       rx="11.338583"
       ry="11.338583" /><rect
       style="display:inline;fill:#ff0202;fill-opacity:1;stroke:#000000;stroke-width:2;stroke-linecap:round;stroke-dasharray:none;stroke-opacity:1"
       id="rect116-0"
       width="45.354332"
       height="22.677166"
       x="171.5791"
       y="148.90176"
       rx="11.338583"
       ry="11.338583" /><rect
       style="display:inline;fill:#ff0202;fill-opacity:1;stroke:#000000;stroke-width:2;stroke-linecap:round;stroke-dasharray:none;stroke-opacity:1"
       id="rect116-15"
       width="45.354332"
       height="22.677166"
       x="50.63422"
       y="148.90176"
       rx="11.338583"
       ry="11.338583" /></g><g
     inkscape:groupmode="layer"
     id="layer4"
     inkscape:label="text-alignment"
     style="display:none"><path
       style="fill:#ff0202;fill-opacity:1;stroke:#000000;stroke-width:2;stroke-linecap:round;stroke-dasharray:none;stroke-opacity:1"
       d="M 20.397995,88.429309 H 126.22477"
       id="path122" /><path
       style="fill:#ff0202;fill-opacity:1;stroke:#000000;stroke-width:2;stroke-linecap:round;stroke-dasharray:none;stroke-opacity:1"
       d="M 141.34289,88.429309 H 247.16965"
       id="path123" /><path
       style="fill:#ff0202;fill-opacity:1;stroke:#000000;stroke-width:2;stroke-linecap:round;stroke-dasharray:none;stroke-opacity:1"
       d="M 262.2878,88.429309 H 368.11457"
       id="path124" /><path
       style="fill:#ff0202;fill-opacity:1;stroke:#000000;stroke-width:2;stroke-linecap:round;stroke-dasharray:none;stroke-opacity:1"
       d="M 262.28778,209.3742 H 368.11455"
       id="path125" /><path
       style="fill:#ff0202;fill-opacity:1;stroke:#000000;stroke-width:2;stroke-linecap:round;stroke-dasharray:none;stroke-opacity:1"
       d="M 141.34289,209.3742 H 247.16965"
       id="path126" /><path
       style="fill:#ff0202;fill-opacity:1;stroke:#000000;stroke-width:2;stroke-linecap:round;stroke-dasharray:none;stroke-opacity:1"
       d="M 20.397998,209.3742 H 126.22477"
       id="path127" /></g></svg>
