<?xml version="1.0" encoding="UTF-8" standalone="no"?>
<svg
   viewBox="0 0 434.5 366"
   class="w-full h-full"
   version="1.1"
   id="svg25"
   width="434.5"
   height="366"
   sodipodi:docname="controller.svg"
   inkscape:version="1.4.4 (dcaf3e7d9e, 2026-05-05)"
   xmlns:inkscape="http://www.inkscape.org/namespaces/inkscape"
   xmlns:sodipodi="http://sodipodi.sourceforge.net/DTD/sodipodi-0.dtd"
   xmlns="http://www.w3.org/2000/svg"
   xmlns:svg="http://www.w3.org/2000/svg">
  <sodipodi:namedview
     id="namedview1"
     pagecolor="#ffffff"
     bordercolor="#000000"
     borderopacity="0.25"
     inkscape:showpageshadow="2"
     inkscape:pageopacity="0.0"
     inkscape:pagecheckerboard="0"
     inkscape:deskcolor="#d1d1d1"
     inkscape:zoom="2.565341"
     inkscape:cx="166.2547"
     inkscape:cy="167.03432"
     inkscape:window-width="2560"
     inkscape:window-height="1440"
     inkscape:window-x="0"
     inkscape:window-y="0"
     inkscape:window-maximized="0"
     inkscape:current-layer="svg25" />
  <defs
     id="defs25" />
  <path
     id="path1"
     class="fill-stone-100 dark:fill-stone-800 stroke-stone-300 dark:stroke-stone-700 stroke-[3]"
     d="M 125,78.5 C 92.5,78.5 63.5,96 52,124 40.5,152 1,257.6 1,304 c 0,46.4 13.5,61 45.5,61 32,0 55.5,-84 100.5,-84 h 70 0.5 70 c 45,0 68.5,84 100.5,84 32,0 45.5,-14.6 45.5,-61 0,-46.4 -39.5,-152 -51,-180 C 371,96 342,78.5 309.5,78.5 h -92 -0.5 z"
     style="display:inline;fill:none;fill-opacity:1;stroke:#000000;stroke-width:2;stroke-dasharray:none;stroke-opacity:1" />
  <rect
     style="display:none;fill:#1c1f26;fill-opacity:1;stroke:#000000;stroke-width:2;stroke-linecap:round;stroke-dasharray:none;stroke-opacity:1"
     id="rect8"
     width="350"
     height="200"
     x="42.000008"
     y="78.5"
     rx="50"
     ry="50" />
  <circle
     cx="275"
     cy="224.5"
     r="37.5"
     class="fill-stone-50 dark:fill-stone-900 stroke-stone-200 dark:stroke-stone-700 stroke-2"
     id="circle6"
     style="display:inline;fill:none;fill-opacity:1;stroke:#000000;stroke-width:2;stroke-dasharray:none;stroke-opacity:1" />
  <circle
     cx="110"
     cy="146.5"
     r="37.5"
     class="fill-stone-50 dark:fill-stone-900 stroke-stone-200 dark:stroke-stone-700 stroke-2"
     id="circle5"
     style="display:inline;fill:none;fill-opacity:1;stroke:#000000;stroke-width:2;stroke-dasharray:none;stroke-opacity:1" />
  <circle
     cx="163"
     cy="224.5"
     r="37.5"
     class="fill-stone-50 dark:fill-stone-900 stroke-stone-200 dark:stroke-stone-700 stroke-2"
     id="circle13"
     style="fill:none;fill-opacity:1;stroke:#000000;stroke-width:2;stroke-dasharray:none;stroke-opacity:1" />
  <path
     d="m 149.5,39.47 c 0,4.61 -3.35,8.36 -7.5,8.36 h -13 c -4.14,0 -7.5,-3.74 -7.5,-8.36 V 16.61 c 0,-8.62 6.27,-15.61 14,-15.61 7.73,0 14,6.99 14,15.61 z"
     class="fill-stone-200 dark:fill-stone-700 stroke-stone-300 dark:stroke-stone-600 stroke-2"
     id="btn-l2"
     style="fill:none;fill-opacity:1;stroke:#000000;stroke-width:2;stroke-dasharray:none;stroke-opacity:1" />
  <path
     d="m 313.83,39.94 c 0,4.64 -3.44,8.39 -7.68,8.39 h -13.31 c -4.24,0 -7.68,-3.76 -7.68,-8.39 V 17 c 0,-8.65 6.42,-15.67 14.33,-15.67 7.92,0 14.33,7.01 14.33,15.67 v 22.94 z"
     class="fill-stone-200 dark:fill-stone-700 stroke-stone-300 dark:stroke-stone-600 stroke-2"
     id="btn-r2"
     style="fill:none;fill-opacity:1;stroke:#000000;stroke-width:2;stroke-dasharray:none;stroke-opacity:1" />
  <rect
     x="113.8"
     y="53.300003"
     width="43.299999"
     height="17"
     rx="4"
     class="fill-stone-200 dark:fill-stone-700 stroke-stone-300 dark:stroke-stone-600 stroke-2"
     id="btn-l1"
     style="fill:none;fill-opacity:1;stroke:#000000;stroke-width:2;stroke-dasharray:none;stroke-opacity:1" />
  <rect
     x="278.29999"
     y="53.5"
     width="42.599998"
     height="17"
     rx="4"
     class="fill-stone-200 dark:fill-stone-700 stroke-stone-300 dark:stroke-stone-600 stroke-2"
     id="btn-r1"
     style="fill:none;fill-opacity:1;stroke:#000000;stroke-width:2;stroke-dasharray:none;stroke-opacity:1" />
  <path
     style="fill:none;fill-opacity:1;stroke:#000000;stroke-width:2;stroke-dasharray:none;stroke-opacity:1"
     d="m 109.85938,117.74023 a 28,28 0 0 0 -27.999997,28 28,28 0 0 0 27.999997,28 28,28 0 0 0 28,-28 28,28 0 0 0 -28,-28 z"
     id="btn-l3" />
  <path
     style="fill:none;fill-opacity:1;stroke:#000000;stroke-width:2;stroke-dasharray:none;stroke-opacity:1"
     d="m 274.67384,196.36719 a 28,28 0 0 0 -28,28 28,28 0 0 0 28,28 28,28 0 0 0 28,-28 28,28 0 0 0 -28,-28 z"
     id="btn-r3" />
  <circle
     cx="326"
     cy="122"
     class="fill-transparent stroke-yellow-500/50 stroke-2"
     id="btn-b4"
     style="fill:none;fill-opacity:1;stroke:#000000;stroke-width:2;stroke-dasharray:none;stroke-opacity:1"
     r="14" />
  <circle
     cx="301.5"
     cy="146.5"
     class="fill-transparent stroke-blue-500/50 stroke-2"
     id="btn-b3"
     style="fill:none;fill-opacity:1;stroke:#000000;stroke-width:2;stroke-dasharray:none;stroke-opacity:1"
     r="14" />
  <circle
     cx="350.5"
     cy="146.5"
     class="fill-transparent stroke-red-500/50 stroke-2"
     id="btn-b2"
     style="fill:none;fill-opacity:1;stroke:#000000;stroke-width:2;stroke-dasharray:none;stroke-opacity:1"
     r="14" />
  <circle
     cx="326"
     cy="171"
     class="fill-transparent stroke-green-600/50 stroke-2"
     id="btn-b1"
     style="fill:none;fill-opacity:1;stroke:#000000;stroke-width:2;stroke-dasharray:none;stroke-opacity:1"
     r="14" />
  <circle
     cx="185.00002"
     cy="148.5"
     class="fill-stone-200 dark:fill-stone-700"
     id="btn-s1"
     style="fill:none;fill-opacity:1;stroke:#000000;stroke-width:2;stroke-dasharray:none;stroke-opacity:1"
     r="10" />
  <circle
     cx="250.00002"
     cy="148.5"
     r="10"
     class="fill-stone-200 dark:fill-stone-700"
     id="btn-s2"
     style="fill:none;fill-opacity:1;stroke:#000000;stroke-width:2;stroke-dasharray:none;stroke-opacity:1" />
  <rect
     x="205.50002"
     y="164"
     width="24"
     height="14"
     rx="7"
     class="fill-stone-200 dark:fill-stone-700"
     id="btn-a2"
     style="fill:none;fill-opacity:1;stroke:#000000;stroke-width:2;stroke-dasharray:none;stroke-opacity:1" />
  <ellipse
     cx="217.50002"
     cy="111.5"
     class="fill-stone-200 dark:fill-stone-700"
     id="btn-a1"
     style="display:inline;fill:none;fill-opacity:1;stroke:#000000;stroke-width:2;stroke-dasharray:none;stroke-opacity:1"
     rx="19.452999"
     ry="19.453312" />
  <path
     d="m 213,106.5 9,10 m 0,-10 -9,10"
     stroke="#a8a29e"
     stroke-width="3"
     stroke-linecap="round"
     id="path25"
     style="display:none;fill:none;stroke:#000000;stroke-width:2;stroke-dasharray:none;stroke-opacity:1" />
  <path
     id="btn-left"
     style="display:inline;fill:none;fill-opacity:1;stroke:#000000;stroke-width:2;stroke-linecap:round;stroke-dasharray:none;stroke-opacity:1"
     d="m 137.84766,216.22461 c -2.77763,0 -5.01368,2.23605 -5.01368,5.01367 v 6.52344 c 0,2.77762 2.23605,5.01367 5.01368,5.01367 h 16.83789 L 163,224.5 l -8.31445,-8.27539 z" />
  <path
     id="btn-right"
     style="display:inline;fill:none;fill-opacity:1;stroke:#000000;stroke-width:2;stroke-linecap:round;stroke-dasharray:none;stroke-opacity:1"
     d="m 188.15234,216.22461 c 2.77763,0 5.01368,2.23605 5.01368,5.01367 v 6.52344 c 0,2.77762 -2.23605,5.01367 -5.01368,5.01367 H 171.31445 L 163,224.5 l 8.31445,-8.27539 z" />
  <path
     id="btn-up"
     style="display:inline;fill:none;fill-opacity:1;stroke:#000000;stroke-width:2;stroke-linecap:round;stroke-dasharray:none;stroke-opacity:1"
     d="m 171.31445,199.3086 c 0,-2.77763 -2.23605,-5.01368 -5.01367,-5.01368 h -6.52344 c -2.77762,0 -5.01367,2.23605 -5.01367,5.01368 v 16.83789 l 8.27539,8.31445 8.27539,-8.31445 z" />
  <path
     id="btn-down"
     style="display:inline;fill:none;fill-opacity:1;stroke:#000000;stroke-width:2;stroke-linecap:round;stroke-dasharray:none;stroke-opacity:1"
     d="m 171.31445,249.61328 c 0,2.77763 -2.23605,5.01368 -5.01367,5.01368 h -6.52344 c -2.77762,0 -5.01367,-2.23605 -5.01367,-5.01368 v -16.83789 l 8.27539,-8.31445 8.27539,8.31445 z" />
</svg>
